<svg width="22" height="22" viewBox="0 0 22 22" fill="none" xmlns="http://www.w3.org/2000/svg">
<path fill-rule="evenodd" clip-rule="evenodd" d="M10.9998 0.166504C16.9831 0.166504 21.8332 5.01659 21.8332 10.9998C21.8332 16.9831 16.9831 21.8332 10.9998 21.8332C5.01659 21.8332 0.166504 16.9831 0.166504 10.9998C0.166504 5.01659 5.01659 0.166504 10.9998 0.166504ZM12.7516 13.1481C9.98997 13.9614 7.57576 15.667 5.8865 17.9982C7.36963 19.0849 9.16116 19.6695 10.9998 19.6665C12.1247 19.6684 13.2391 19.4501 14.2802 19.0241C13.9394 17.0254 13.428 15.0595 12.7516 13.1481ZM14.8944 12.7126C15.4708 14.3842 15.9344 16.1088 16.2746 17.8779C17.864 16.6592 18.9825 14.9279 19.4401 12.978C17.9519 12.6252 16.4135 12.5354 14.8944 12.7126ZM11.3801 9.82117C8.48128 10.8434 5.39128 11.2075 2.33425 10.8872L2.33317 10.9998C2.33317 13.0874 3.072 15.0028 4.30159 16.4988C6.22592 13.9451 8.90697 12.0635 11.9629 11.1223C11.7774 10.6851 11.583 10.2516 11.3801 9.82225V9.82117ZM18.0285 5.92875C16.6255 7.15411 15.0628 8.18362 13.3832 8.98917C13.6367 9.53084 13.8783 10.0779 14.1068 10.6326C15.9485 10.3509 17.8443 10.4094 19.6643 10.807C19.6282 9.05234 19.0575 7.35049 18.0285 5.92875ZM7.28725 3.16734C6.15498 3.70546 5.15257 4.48225 4.34884 5.44436C3.54512 6.40647 2.95912 7.53112 2.63109 8.74109C5.24778 9.00536 7.89075 8.70994 10.3845 7.87442C9.47733 6.22647 8.44171 4.65258 7.28725 3.16734ZM10.9998 2.33317C10.4798 2.33317 9.97067 2.37867 9.47775 2.46642C10.5624 3.92367 11.541 5.45692 12.406 7.05434C13.9032 6.34134 15.2974 5.42962 16.5508 4.34384C14.9943 3.042 13.029 2.33012 10.9998 2.33317Z" fill="black"/>
</svg>
