<svg width="32" height="32" viewBox="0 0 32 32" fill="none" xmlns="http://www.w3.org/2000/svg">
<rect x="0.5" y="0.5" width="31" height="31" rx="5.5" stroke="black"/>
<path d="M16 16C16 16.7956 16.3161 17.5587 16.8787 18.1213C17.4413 18.6839 18.2044 19 19 19C19.7956 19 20.5587 18.6839 21.1213 18.1213C21.6839 17.5587 22 16.7956 22 16C22 15.2044 21.6839 14.4413 21.1213 13.8787C20.5587 13.3161 19.7956 13 19 13C18.2044 13 17.4413 13.3161 16.8787 13.8787C16.3161 14.4413 16 15.2044 16 16Z" stroke="#212121" stroke-width="2" stroke-linecap="round" stroke-linejoin="round"/>
<path d="M10 10C10 9.20435 10.3161 8.44129 10.8787 7.87868C11.4413 7.31607 12.2044 7 13 7H19C19.7956 7 20.5587 7.31607 21.1213 7.87868C21.6839 8.44129 22 9.20435 22 10C22 10.7956 21.6839 11.5587 21.1213 12.1213C20.5587 12.6839 19.7956 13 19 13H13C12.2044 13 11.4413 12.6839 10.8787 12.1213C10.3161 11.5587 10 10.7956 10 10Z" stroke="#212121" stroke-width="2" stroke-linecap="round" stroke-linejoin="round"/>
<path d="M13 13C12.2044 13 11.4413 13.3161 10.8787 13.8787C10.3161 14.4413 10 15.2044 10 16C10 16.7956 10.3161 17.5587 10.8787 18.1213C11.4413 18.6839 12.2044 19 13 19M13 19H16M13 19C12.4067 19 11.8266 19.1759 11.3333 19.5056C10.8399 19.8352 10.4554 20.3038 10.2284 20.8519C10.0013 21.4001 9.94189 22.0033 10.0576 22.5853C10.1734 23.1672 10.4591 23.7018 10.8787 24.1213C11.2982 24.5409 11.8328 24.8266 12.4147 24.9424C12.9967 25.0581 13.5999 24.9987 14.1481 24.7716C14.6962 24.5446 15.1648 24.1601 15.4944 23.6667C15.8241 23.1734 16 22.5933 16 22V7" stroke="#212121" stroke-width="2" stroke-linecap="round" stroke-linejoin="round"/>
</svg>
