<svg width="20" height="20" viewBox="0 0 20 20" fill="none" xmlns="http://www.w3.org/2000/svg">
<path d="M13.9968 11.8335C14.0702 11.2285 14.1252 10.6235 14.1252 10.0002C14.1252 9.37683 14.0702 8.77183 13.9968 8.16683H17.0952C17.2418 8.7535 17.3335 9.36766 17.3335 10.0002C17.3335 10.6327 17.2418 11.2468 17.0952 11.8335M12.3743 16.9302C12.9243 15.9127 13.346 14.8127 13.6393 13.6668H16.3435C15.4554 15.1961 14.0464 16.3545 12.3743 16.9302ZM12.1452 11.8335H7.85516C7.7635 11.2285 7.7085 10.6235 7.7085 10.0002C7.7085 9.37683 7.7635 8.76266 7.85516 8.16683H12.1452C12.2277 8.76266 12.2918 9.37683 12.2918 10.0002C12.2918 10.6235 12.2277 11.2285 12.1452 11.8335ZM10.0002 17.2968C9.23933 16.1968 8.62516 14.9777 8.24933 13.6668H11.751C11.3752 14.9777 10.761 16.1968 10.0002 17.2968ZM6.3335 6.3335H3.65683C4.53578 4.80011 5.94373 3.63986 7.61683 3.07016C7.06683 4.08766 6.65433 5.18766 6.3335 6.3335ZM3.65683 13.6668H6.3335C6.65433 14.8127 7.06683 15.9127 7.61683 16.9302C5.94723 16.3542 4.54127 15.1956 3.65683 13.6668ZM2.90516 11.8335C2.7585 11.2468 2.66683 10.6327 2.66683 10.0002C2.66683 9.36766 2.7585 8.7535 2.90516 8.16683H6.0035C5.93016 8.77183 5.87516 9.37683 5.87516 10.0002C5.87516 10.6235 5.93016 11.2285 6.0035 11.8335M10.0002 2.69433C10.761 3.79433 11.3752 5.02266 11.751 6.3335H8.24933C8.62516 5.02266 9.23933 3.79433 10.0002 2.69433ZM16.3435 6.3335H13.6393C13.3524 5.19817 12.9276 4.10223 12.3743 3.07016C14.061 3.64766 15.4635 4.81183 16.3435 6.3335ZM10.0002 0.833496C4.931 0.833496 0.833496 4.9585 0.833496 10.0002C0.833496 12.4313 1.79927 14.7629 3.51835 16.482C4.36955 17.3332 5.38008 18.0084 6.49223 18.4691C7.60438 18.9297 8.79638 19.1668 10.0002 19.1668C12.4313 19.1668 14.7629 18.2011 16.482 16.482C18.2011 14.7629 19.1668 12.4313 19.1668 10.0002C19.1668 8.79638 18.9297 7.60438 18.4691 6.49223C18.0084 5.38008 17.3332 4.36955 16.482 3.51835C15.6308 2.66715 14.6202 1.99194 13.5081 1.53127C12.3959 1.0706 11.2039 0.833496 10.0002 0.833496Z" fill="#333333"/>
</svg>
