<svg width="32" height="32" viewBox="0 0 32 32" fill="none" xmlns="http://www.w3.org/2000/svg">
<g id="simple-icons:adobephotoshop" clip-path="url(#clip0_36_390)">
<path id="Vector" d="M14.5065 18.029L14.5059 18.0293C13.5245 18.39 12.4605 18.5133 11.3333 18.5133H11.2988C11.0094 18.5133 10.7755 18.5133 10.6169 18.4975C10.6094 18.4967 10.6015 18.496 10.5933 18.4954V22.2403C10.6217 22.6099 10.3457 22.9014 10.0174 22.9483L9.9822 22.9533H9.94667H7.36C7.22619 22.9533 7.02871 22.9179 6.87391 22.7515C6.726 22.5925 6.7 22.4016 6.7 22.2786V8.55996C6.7 8.45358 6.72114 8.27726 6.85382 8.12416C6.99853 7.9572 7.19085 7.9133 7.33333 7.9133C7.55893 7.9133 7.76313 7.91327 8.05828 7.90044L8.05919 7.9004C8.22549 7.89347 8.39417 7.89005 8.56177 7.88673L8.57552 7.88646C8.74011 7.8832 8.90463 7.87994 9.07483 7.87364C9.26055 7.86676 9.45207 7.86336 9.64471 7.86004L9.66352 7.85971C9.85151 7.85648 10.0415 7.8532 10.2372 7.84689C10.6586 7.8333 11.0654 7.8333 11.4631 7.8333H11.4667C12.5939 7.8333 13.5625 7.96989 14.3816 8.27575C15.115 8.52629 15.7901 8.93769 16.3488 9.48173L16.3536 9.48638L16.3536 9.48641C16.8315 9.96439 17.2038 10.5457 17.4419 11.1856L17.4446 11.1928L17.4446 11.1928C17.6608 11.8022 17.7786 12.4318 17.7787 13.0927C17.7787 13.0929 17.7787 13.0931 17.7787 13.0933H17.2787C17.28 14.24 17.0133 15.1866 16.4787 15.9333L14.5065 18.029ZM14.5065 18.029C15.4635 17.6757 16.2928 17.0554 16.8852 16.2244L14.5065 18.029ZM12.9455 11.69L12.9454 11.6901L12.954 11.6934C13.236 11.8017 13.4764 11.9963 13.6411 12.2493C13.8034 12.5265 13.8837 12.8429 13.8736 13.1572L13.8733 13.1652V13.1733C13.8733 13.6838 13.7584 14.0068 13.5807 14.2208C13.3433 14.489 13.0517 14.6819 12.7313 14.772L12.7218 14.7746L12.7124 14.7777C12.2703 14.9211 11.8025 14.9933 11.3333 14.9933H10.6267C10.62 14.9933 10.6134 14.9933 10.6067 14.9932V11.4716C10.6138 11.472 10.6211 11.4723 10.6284 11.4727L10.654 11.474L10.6796 11.4726C10.917 11.4601 11.2089 11.46 11.56 11.46V11.4601L11.5722 11.4598C12.0626 11.4479 12.5261 11.52 12.9455 11.69ZM26.343 21.4067L26.3431 21.4068L26.3497 21.3968C26.7492 20.7961 26.9665 20.0753 26.9521 19.3464C26.9656 18.7883 26.8401 18.2417 26.592 17.7486L26.5874 17.7394L26.5824 17.7304C26.2882 17.2012 25.8687 16.7659 25.3609 16.4442L25.3583 16.4426C24.6924 16.0264 23.9695 15.6778 23.2147 15.4249C22.912 15.2979 22.6109 15.16 22.3274 15.0115C22.2008 14.9436 22.1014 14.8652 22.0328 14.7837C22.0175 14.7627 22.0095 14.747 22.0059 14.7381C22.0059 14.738 22.0059 14.738 22.0058 14.7379C22.0078 14.7193 22.0153 14.6904 22.0287 14.6645C22.0455 14.6459 22.0794 14.6207 22.1386 14.607L22.1386 14.6072L22.152 14.6037C22.3708 14.5464 22.5985 14.5158 22.8017 14.526L22.8142 14.5266H22.8267C23.2892 14.5266 23.7461 14.5874 24.2143 14.6887L24.2143 14.6887L24.2192 14.6897C24.6313 14.7745 25.0118 14.9063 25.3647 15.0945L25.3646 15.0946L25.3764 15.1005C25.5964 15.2105 25.8153 15.171 25.9485 15.1414L26.0396 15.1211L26.1174 15.0693C26.3134 14.9386 26.4067 14.719 26.4067 14.52V12.3466C26.4067 12.2293 26.3795 12.1221 26.3674 12.0745C26.3665 12.0712 26.3658 12.0681 26.3651 12.0654L26.3518 12.0121L26.3272 11.963C26.2849 11.8783 26.2265 11.8037 26.1618 11.744C26.1077 11.6942 26.025 11.6325 25.9154 11.5955C25.5249 11.4383 25.1052 11.3232 24.6693 11.2648C24.0993 11.1815 23.5162 11.14 22.9467 11.14C21.9573 11.14 21.0872 11.2919 20.369 11.6557C19.7147 11.9619 19.1503 12.451 18.7653 13.067L18.7652 13.0669L18.7601 13.0756C18.423 13.6399 18.2358 14.2724 18.2347 14.9393C18.2223 15.4912 18.3454 16.0377 18.5932 16.5311L18.5983 16.5413L18.6039 16.5512C18.8908 17.0628 19.2867 17.5049 19.7635 17.8465L19.7634 17.8466L19.7741 17.8538C20.3939 18.2741 21.0548 18.6128 21.7734 18.8672C22.0924 18.9923 22.3504 19.1004 22.5512 19.1958C22.7593 19.2946 22.879 19.3673 22.9388 19.4153C23.0161 19.4783 23.051 19.5226 23.0655 19.5466C23.0703 19.5545 23.0724 19.5593 23.0733 19.5618C23.0725 19.608 23.0388 19.6505 23.0129 19.6619L23.0012 19.667L22.9897 19.6728C22.8508 19.7422 22.5812 19.808 22.1067 19.808C21.613 19.808 21.1226 19.7463 20.6609 19.6245L20.652 19.6222L20.6431 19.6202C20.1089 19.5 19.6131 19.3056 19.1407 19.0279C19.0415 18.9662 18.7654 18.8317 18.4782 19.0283C18.3527 19.1136 18.2865 19.2278 18.2529 19.3123C18.2188 19.3983 18.2053 19.4849 18.2053 19.5613V21.8581C18.1791 22.213 18.413 22.4603 18.61 22.5701L18.6253 22.5786L18.6411 22.586C19.1072 22.8045 19.6143 22.9625 20.1212 23.0514C20.7542 23.1779 21.3868 23.232 22.0253 23.232C23.0332 23.232 23.9022 23.0801 24.6321 22.7696C25.3175 22.4909 25.9146 22.0186 26.343 21.4067ZM23.0738 19.5636C23.0737 19.5634 23.0736 19.5629 23.0735 19.5622L23.0738 19.5636ZM5.66667 0.899963H26.3333C29.1905 0.899963 31.5 3.20944 31.5 6.06663V25.932C31.5 28.7892 29.1905 31.0986 26.3333 31.0986H5.66667C2.80948 31.0986 0.5 28.7892 0.5 25.932V6.06663C0.5 3.20944 2.80948 0.899963 5.66667 0.899963Z" stroke="black"/>
</g>
<defs>
<clipPath id="clip0_36_390">
<rect width="32" height="32" fill="white"/>
</clipPath>
</defs>
</svg>
