<svg width="25" height="24" viewBox="0 0 25 24" fill="none" xmlns="http://www.w3.org/2000/svg">
<path d="M11.03 10.73C10.93 10.42 10.84 10.12 10.74 9.81005C10.64 9.50005 10.55 9.21005 10.47 8.92005C10.39 8.64005 10.32 8.38005 10.25 8.14005H10.23C10.14 8.57005 10.03 9.00005 9.89 9.43005C9.74 9.91005 9.59 10.41 9.43 10.91C9.29 11.42 9.14 11.89 8.99 12.31H11.53C11.47 12.099 11.39 11.85 11.3 11.589C11.21 11.32 11.12 11.03 11.03 10.73ZM20.25 0.300049H4.75C2.4 0.300049 0.5 2.20005 0.5 4.55005V19.4501C0.5 21.8001 2.4 23.7001 4.75 23.7001H20.25C22.6 23.7001 24.5 21.8001 24.5 19.4501V4.55005C24.5 2.20005 22.6 0.300049 20.25 0.300049ZM15.2 16.83H13.109C13.04 16.84 12.97 16.79 12.95 16.72L12.13 14.34H8.41L7.65 16.6901C7.63 16.7801 7.55 16.84 7.46 16.831H5.58C5.47 16.831 5.44 16.77 5.47 16.651L8.69 7.38005C8.72 7.28005 8.75 7.17005 8.79 7.05005C8.83 6.84005 8.85 6.62005 8.85 6.40005C8.84 6.35005 8.88 6.30005 8.93 6.29005H11.52C11.6 6.29005 11.64 6.32005 11.65 6.37005L15.3 16.67C15.33 16.779 15.3 16.83 15.2 16.83ZM18.6 16.68C18.6 16.7901 18.561 16.84 18.471 16.84H16.51C16.41 16.84 16.36 16.7791 16.36 16.68V8.98005C16.36 8.88005 16.401 8.84005 16.491 8.84005H18.471C18.561 8.84005 18.6 8.89005 18.6 8.98005V16.68ZM18.391 7.65005C18.2729 7.76999 18.1305 7.86327 17.9734 7.92364C17.8163 7.98401 17.648 8.01006 17.48 8.00005C17.15 8.01005 16.83 7.88005 16.589 7.65005C16.3599 7.39954 16.2379 7.06935 16.249 6.73005C16.239 6.39005 16.369 6.07005 16.608 5.84005C16.85 5.61005 17.17 5.49005 17.5 5.49005C17.891 5.49005 18.189 5.61005 18.41 5.84005C18.63 6.08005 18.75 6.40005 18.74 6.73005C18.75 7.07005 18.63 7.40005 18.391 7.65005Z" fill="#3D3D3D"/>
</svg>
