<svg width="16" height="22" viewBox="0 0 16 22" fill="none" xmlns="http://www.w3.org/2000/svg">
<path d="M7.90002 20.25C6.45002 20.25 5.15002 19.8625 4.03752 19.1125C2.93752 18.3625 2.11252 17.2875 1.57502 15.9125C1.26252 15.1125 1.07502 14.2375 0.987516 13.2375C0.887516 12.05 0.962516 10.8375 1.22502 9.65C1.63752 7.7375 2.47502 6.0875 3.70002 4.7125C4.91252 3.3625 6.35002 2.45 7.98752 2.025C8.68752 1.8375 9.38752 1.75 10.05 1.75C10.85 1.75 11.6375 1.8875 12.3875 2.1625C13.5 2.575 14.2625 3.2875 14.625 4.2875C14.8 4.75 14.85 5.2375 14.8 5.7875C14.725 6.5625 14.475 7.25 14.05 7.8375C13.5625 8.5125 12.975 8.925 12.2625 9.1C12.1375 9.1375 12 9.15 11.85 9.15C11.7875 9.15 11.7375 9.15 11.675 9.1375C11.4625 9.1125 11.275 9.025 11.15 8.8625C11.025 8.7 10.975 8.4875 11 8.275C11.0375 8.025 11.1375 7.8125 11.2375 7.6375L11.275 7.5625C11.475 7.1625 11.6625 6.7875 11.7625 6.3875C11.925 5.7125 11.925 5.2 11.75 4.725C11.5625 4.225 11.2125 3.9125 10.6875 3.7875C10.4875 3.7375 10.2875 3.7125 10.0875 3.7125C9.63752 3.7125 9.16252 3.825 8.66252 4.05C7.67502 4.5 6.83752 5.25 6.12502 6.3375C5.63752 7.0875 5.26252 7.925 4.98752 8.9C4.78752 9.6 4.66252 10.3375 4.58752 11.1C4.55002 11.4625 4.52502 11.8875 4.52502 12.3C4.53752 13.5125 4.71252 14.475 5.08752 15.325C5.50002 16.275 6.06252 16.9375 6.82502 17.3625C7.33752 17.65 7.91252 17.8 8.52502 17.8C8.62502 17.8 8.73752 17.8 8.85002 17.7875C10.15 17.6875 11.3 17.1 12.35 16C12.8875 15.4375 13.3375 14.7875 13.725 14.0125C13.7875 13.9 13.85 13.775 13.95 13.675C14.075 13.5375 14.2375 13.4625 14.4125 13.4625C14.625 13.4625 14.8125 13.575 14.9375 13.775C15.0875 14.025 15.075 14.3 15.05 14.475C14.975 14.9875 14.7875 15.4875 14.475 16.075C13.575 17.6875 12.3375 18.875 10.8 19.6125C10.0125 19.9875 9.16252 20.2 8.28752 20.2375C8.15002 20.25 8.02502 20.25 7.90002 20.25Z" stroke="#3D3D3D" stroke-width="1.875" stroke-miterlimit="10" stroke-linejoin="round"/>
</svg>
