<svg width="32" height="32" viewBox="0 0 32 32" fill="none" xmlns="http://www.w3.org/2000/svg">
<rect x="0.5" y="0.5" width="31" height="31" rx="5.5" stroke="black"/>
<g clip-path="url(#clip0_36_403)">
<path d="M27.25 16C27.25 22.2132 22.2132 27.25 16 27.25C9.7868 27.25 4.75 22.2132 4.75 16C4.75 9.7868 9.7868 4.75 16 4.75C22.2132 4.75 27.25 9.7868 27.25 16Z" stroke="#212121" stroke-width="1.5"/>
<path d="M20.7973 20.0108C20.2054 20.8381 19.4393 21.7014 18.4295 22.3489C17.4546 22.9964 16.3403 23.5 15.0171 23.5C13.7984 23.5 12.7886 22.8525 12.2315 22.313C11.3958 21.4856 10.9431 20.2986 10.8038 19.1835C10.386 15.7302 12.4404 11.1619 15.6091 9.18345C16.3403 8.71583 17.1412 8.5 17.9072 8.5C19.4393 8.5 20.5884 9.61511 20.7277 10.982C20.867 12.205 20.4143 13.2482 19.0911 13.9317C18.4295 14.2914 18.0813 14.2554 17.9769 14.1115C17.9072 14.0036 17.942 13.8237 18.0813 13.7158C19.3 12.6727 19.3349 11.8094 19.1956 10.5863C19.0911 9.79496 18.6036 9.29137 18.0465 9.29137C15.6439 9.29137 12.1618 14.8669 12.6493 18.8957C12.8234 20.4784 13.7636 22.313 15.7135 22.313C16.3403 22.313 17.0367 22.1331 17.6287 21.8094C18.9867 21.0899 19.5786 20.5863 20.3795 19.4353C20.4839 19.2914 20.5884 19.1115 20.6929 18.9676C20.7625 18.8237 20.9018 18.7878 21.0063 18.7878C21.1107 18.7878 21.25 18.8957 21.25 19.0755C21.25 19.1835 21.2152 19.3993 21.0759 19.5791C21.0411 19.6511 20.9366 19.8669 20.7973 20.0108Z" fill="#212121"/>
</g>
<defs>
<clipPath id="clip0_36_403">
<rect width="24" height="24" fill="white" transform="translate(4 4)"/>
</clipPath>
</defs>
</svg>
