<svg width="99" height="40" viewBox="0 0 99 40" fill="none" xmlns="http://www.w3.org/2000/svg">
<path d="M29.2202 30.6954C27.542 32.9017 25.3702 35.2038 22.5074 36.9305C19.7433 38.6571 16.5844 40 12.8331 40C9.37804 40 6.51524 38.2734 4.93577 36.8345C2.56656 34.6283 1.28324 31.4628 0.888374 28.4892C-0.197513 19.2806 5.62679 7.19424 14.61 1.82254C16.6831 0.57554 18.9536 0 21.1254 0C25.4689 0 28.7266 2.97362 29.1214 6.6187C29.5163 9.8801 28.233 12.6619 24.4817 14.4844C22.6061 15.4436 21.6189 15.3477 21.3228 14.964C21.1254 14.6763 21.2241 14.1966 21.6189 13.9089C25.074 11.1271 25.1728 8.82494 24.7779 5.56355C24.4817 3.45324 23.0997 2.11031 21.5202 2.11031C14.7088 2.11031 4.83705 16.9784 6.21909 27.7218C6.71268 31.9424 9.37804 36.8345 14.9062 36.8345C16.6831 36.8345 18.6574 36.3549 20.3356 35.4916C24.1856 33.5731 25.8638 32.2302 28.1343 29.1607C28.4304 28.777 28.7266 28.2974 29.0227 27.9137C29.2202 27.53 29.615 27.4341 29.9112 27.4341C30.2073 27.4341 30.6022 27.7218 30.6022 28.2014C30.6022 28.4892 30.5035 29.0647 30.1086 29.5444C29.9112 29.7362 29.5163 30.3117 29.2202 30.6954Z" fill="#3D3D3D"/>
<path d="M39.5848 36.1631C37.9066 36.1631 36.9194 35.2997 36.5245 33.9568C35.4387 35.3957 33.8592 36.1631 32.2797 36.1631C29.6144 36.1631 27.1464 33.9568 26.7516 31.0791C26.1593 25.9952 30.6015 19.4724 37.3143 19.4724C40.1771 19.4724 42.5463 20.6235 42.8424 22.8297C43.2373 25.6115 40.7694 26.187 39.8809 26.187C39.0912 26.187 37.8079 25.9952 37.7091 25.2278C37.6104 24.4604 39.3873 24.94 39.1899 23.1175C39.0912 21.9664 37.9066 21.5827 36.722 21.5827C32.5759 21.5827 30.3054 27.1463 30.799 30.5995C30.9964 32.1343 31.7861 33.6691 33.2669 33.6691C34.4515 33.6691 36.2284 32.0384 36.8207 29.5444C37.2156 27.9137 38.8938 26.7626 40.0784 26.7626C40.6707 26.7626 41.1642 27.0504 41.263 27.6259C41.263 27.8177 41.263 28.1055 41.1642 28.4892C41.0655 29.2566 40.4732 31.5587 40.4732 32.1343C40.4732 32.6139 40.7694 33.1894 41.5591 33.1894C42.4476 33.1894 46.495 30.8873 48.7655 27.8177C48.9629 27.53 49.3578 27.3381 49.6539 27.3381C49.9501 27.3381 50.3449 27.53 50.3449 27.9137C50.4436 28.2974 50.2462 28.777 49.7526 29.4484C47.186 33.0935 41.5591 36.1631 39.5848 36.1631Z" fill="#3D3D3D"/>
<path d="M96.1508 34.2445C96.3483 35.8752 97.138 36.9304 97.829 37.5059C98.1252 37.6978 98.2239 37.9855 98.2239 38.1774C98.3226 38.657 97.9277 39.0407 97.3354 39.0407C97.138 39.0407 96.9406 39.0407 96.7431 38.9448C93.7816 37.7937 92.597 35.8752 92.2022 34.0527C91.1163 35.3956 89.5368 36.2589 88.056 36.2589C85.3907 36.2589 82.9228 34.0527 82.5279 31.175C81.9356 26.187 86.5753 19.6642 93.1893 19.6642C95.9534 19.6642 98.4213 20.7193 98.7175 22.9256C99.1123 25.7073 96.5457 26.2829 95.756 26.2829C94.8675 26.2829 93.5842 26.091 93.4855 25.3237C93.3868 24.6522 95.2624 25.0359 95.065 23.3093C94.9662 22.1582 93.6829 21.7745 92.597 21.7745C88.7471 21.7745 86.1804 26.6666 86.674 30.6954C86.8714 32.3261 87.6612 33.8608 89.1419 33.8608C90.3265 33.8608 92.1034 32.2301 92.7945 29.7361C93.1893 28.1054 94.8675 26.9544 96.0521 26.9544C96.6444 26.9544 97.138 27.2421 97.2367 27.9136C97.2367 28.2014 97.138 28.9687 96.5457 31.5587C96.0521 32.5179 96.0521 33.4771 96.1508 34.2445Z" fill="#3D3D3D"/>
<path d="M60.6126 33.2853C61.501 33.2853 64.4625 32.2301 66.8318 29.0647C67.1279 28.7769 67.4241 28.585 67.7202 28.585C68.1151 28.585 68.4112 28.7769 68.5099 29.1606C68.5099 29.4484 68.3125 30.0239 67.8189 30.6954C65.1536 34.3404 60.6126 36.163 58.6382 36.163C56.5652 36.163 55.4793 34.916 55.2819 33.0934C55.1831 32.5179 55.1831 31.7505 55.3806 30.9831C56.0716 26.8584 57.6511 24.3644 57.5524 23.597C57.5524 23.4052 57.3549 23.3093 57.2562 23.3093C55.9729 23.3093 51.3332 27.9136 50.6422 30.9831L50.0499 33.3812C49.655 35.1078 47.9768 36.163 46.7922 36.163C46.1999 36.163 45.805 35.8752 45.7063 35.2997C45.7063 35.1078 45.7063 34.8201 45.805 34.4364C45.805 34.4364 48.0755 23.1174 48.1742 22.5419C48.4704 21.199 48.964 19.856 51.728 19.856C52.3204 19.856 52.7152 20.1438 52.8139 20.8153C52.8139 21.0071 52.8139 21.2949 52.7152 21.6786L51.9255 25.1318C54.3934 21.9663 58.1447 19.6642 60.5139 19.6642C61.501 19.6642 62.1921 20.1438 62.3895 21.199C62.4882 21.7745 62.2908 22.7337 61.8959 23.7889C61.1062 25.9951 60.2177 29.1606 59.5267 31.9424C59.3293 32.3261 59.5267 33.2853 60.6126 33.2853Z" fill="#3D3D3D"/>
<path d="M76.2099 20.0478C76.2099 21.5826 76.9997 23.2133 77.9868 24.2685C78.3817 23.2133 78.5791 22.1582 78.5791 21.103C78.5791 19.0886 77.7894 18.2253 77.1971 18.2253C76.5061 18.2253 76.2099 19.1845 76.2099 20.0478ZM79.7637 28.2972C79.4676 28.2972 79.1714 28.2972 78.7766 28.2013C76.2099 31.8464 73.5446 34.3404 71.4715 35.3956C70.5831 35.8752 69.7933 36.067 69.201 36.067C68.7074 36.067 68.2139 35.9711 68.0164 35.5874C67.128 34.0526 66.7331 31.079 66.7331 27.9136C66.7331 25.6114 66.9305 23.6929 67.3254 22.35C67.819 20.9112 69.6946 19.5682 70.8792 19.5682C71.4715 19.5682 71.9651 19.856 71.9651 20.5275C71.9651 20.7193 71.8664 21.0071 71.7677 21.2948C70.8792 23.6929 70.4843 25.9951 70.4843 28.2972C70.4843 29.5442 70.7805 31.6546 71.0766 32.7097C71.1754 32.9016 71.1754 33.1893 71.3728 33.1893C71.7677 33.1893 74.433 30.5994 76.4074 27.5299C74.7292 26.4747 73.742 24.5562 73.742 22.1582C73.742 18.1294 76.2099 16.115 78.5791 16.115C80.4548 16.115 82.133 17.4579 82.133 20.1438C82.133 21.7745 81.4419 23.6929 80.4548 25.5155C80.4548 25.5155 80.8496 25.6114 81.0471 25.6114C82.5278 25.6114 83.7124 24.9399 84.3047 24.2685C84.7983 23.7889 85.1932 23.4052 85.5881 23.4052C85.8842 23.4052 85.9829 23.597 85.9829 23.8848C85.9829 24.0766 85.8842 24.3644 85.7855 24.6522C84.4034 26.8584 81.8368 28.2972 79.7637 28.2972Z" fill="#3D3D3D"/>
</svg>
