<svg width="43" height="42" viewBox="0 0 43 42" fill="none" xmlns="http://www.w3.org/2000/svg">
<path d="M27.5897 15.169C29.1057 15.1235 30.5443 14.4893 31.6005 13.4009C32.6568 12.3125 33.2475 10.8555 33.2475 9.33885C33.2475 7.82221 32.6568 6.3652 31.6005 5.27681C30.5443 4.18841 29.1057 3.55422 27.5897 3.50873H15.9277C14.4118 3.55422 12.9731 4.18841 11.9169 5.27681C10.8607 6.3652 10.27 7.82221 10.27 9.33885C10.27 10.8555 10.8607 12.3125 11.9169 13.4009C12.9731 14.4893 14.4118 15.1235 15.9277 15.169C14.3985 15.1955 12.9409 15.8215 11.8688 16.9124C10.7967 18.0032 10.196 19.4714 10.196 21.0009C10.196 22.5303 10.7967 23.9986 11.8688 25.0894C12.9409 26.1802 14.3985 26.8062 15.9277 26.8327C14.406 26.87 12.9591 27.5007 11.896 28.5902C10.8329 29.6796 10.2379 31.1415 10.2379 32.6637C10.2379 34.1859 10.8329 35.6478 11.896 36.7373C12.9591 37.8267 14.406 38.4574 15.9277 38.4947C17.4742 38.4938 18.9571 37.8789 20.0505 36.7852C21.1438 35.6915 21.7583 34.2085 21.7587 32.662V15.169H27.5897Z" fill="#3D3D3D"/>
<path d="M27.5895 26.831C30.8099 26.831 33.4205 24.2204 33.4205 21C33.4205 17.7796 30.8099 15.169 27.5895 15.169C24.3692 15.169 21.7585 17.7796 21.7585 21C21.7585 24.2204 24.3692 26.831 27.5895 26.831Z" fill="#3D3D3D"/>
</svg>
