<svg width="16" height="15" viewBox="0 0 16 15" fill="none" xmlns="http://www.w3.org/2000/svg">
<path d="M4.6865 2.80008L2.33317 5.16675C0.113171 7.37341 0.113171 10.9601 2.33317 13.1667C4.55317 15.3734 8.1265 15.3867 10.3332 13.1667L14.3332 9.16675C14.9998 8.52008 14.9998 7.46008 14.3332 6.80675C14.2665 6.72675 14.1798 6.65341 14.0865 6.59341L14.3332 6.33341C14.9998 5.68675 14.9998 4.62675 14.3332 3.97341C14.2398 3.86675 14.1132 3.77341 13.9998 3.70008C14.2532 3.08675 14.1398 2.35341 13.6398 1.85341C13.0598 1.27341 12.1598 1.21341 11.5065 1.66675C11.3708 1.4578 11.1904 1.28168 10.9782 1.15117C10.766 1.02066 10.5274 0.939041 10.2797 0.912231C10.032 0.885421 9.78148 0.914095 9.54626 0.996172C9.31105 1.07825 9.09706 1.21167 8.91984 1.38675L7.2465 3.06008C7.1865 2.96675 7.11317 2.88008 7.03317 2.80008C6.71856 2.49542 6.29778 2.32508 5.85984 2.32508C5.42189 2.32508 5.00112 2.49542 4.6865 2.80008ZM5.6265 3.74675C5.75984 3.61341 5.9665 3.61341 6.09984 3.74675C6.23317 3.88008 6.23317 4.08675 6.09984 4.22008L3.97984 6.34008C4.35437 6.71508 4.56474 7.22341 4.56474 7.75341C4.56474 8.28342 4.35437 8.79175 3.97984 9.16675L4.91984 10.1067C5.37835 9.64829 5.69319 9.06606 5.82581 8.43138C5.95844 7.79669 5.90307 7.13711 5.6665 6.53341L9.8665 2.33341C9.99984 2.20008 10.2065 2.20008 10.3332 2.33341C10.4598 2.46675 10.4732 2.67341 10.3332 2.80675L7.27317 5.87341L8.21317 6.81341L12.2198 2.80675C12.3532 2.67341 12.5598 2.67341 12.6932 2.80675C12.8265 2.94008 12.8265 3.14675 12.6932 3.28008L8.6865 7.28675L9.6265 8.22675L12.9265 4.92675C13.0598 4.79342 13.2665 4.79342 13.3998 4.92675C13.5332 5.06008 13.5332 5.26675 13.3998 5.40008L9.6265 9.16675L10.5665 10.1134L12.9265 7.75341C13.0598 7.62008 13.2665 7.62008 13.3998 7.75341C13.5332 7.88675 13.5332 8.09341 13.3998 8.22675L9.39984 12.2334C7.7065 13.9267 4.9665 13.9267 3.27317 12.2334C1.57984 10.5401 1.57984 7.80008 3.27317 6.10675L5.6265 3.74675ZM15.3332 10.8334C15.3332 13.0401 13.5398 14.8334 11.3332 14.8334V13.8334C12.9998 13.8334 14.3332 12.5001 14.3332 10.8334H15.3332ZM0.666504 4.16675C0.666504 1.96008 2.45984 0.166748 4.6665 0.166748V1.16675C2.99984 1.16675 1.6665 2.50008 1.6665 4.16675H0.666504Z" fill="#3D3D3D"/>
</svg>
