<svg width="32" height="32" viewBox="0 0 32 32" fill="none" xmlns="http://www.w3.org/2000/svg">
<g id="simple-icons:adobeillustrator" clip-path="url(#clip0_36_388)">
<path id="Vector" d="M13.9258 15.6106L13.9258 15.6106L13.9273 15.615C13.9623 15.7164 13.996 15.8162 14.0281 15.9133H12.0189C12.1444 15.5281 12.2679 15.1189 12.3861 14.6891C12.5176 14.2778 12.6453 13.8626 12.7701 13.4568C12.8466 13.2084 12.9219 12.9635 12.9964 12.7253C12.9998 12.7146 13.0033 12.7039 13.0067 12.6932C13.0613 12.8704 13.1182 13.0498 13.1775 13.2335C13.2432 13.4373 13.3058 13.6383 13.3693 13.842L13.3696 13.843C13.4322 14.0441 13.4957 14.2478 13.5626 14.4552C13.6828 14.856 13.804 15.2465 13.9258 15.6106ZM6.15434 22.0373L6.14718 22.0579L6.14184 22.0791C6.11541 22.1839 6.07044 22.413 6.19766 22.632C6.35191 22.8975 6.62356 22.9413 6.77333 22.9413H9.26158C9.62154 22.9623 9.927 22.7214 10.0144 22.3907L10.9105 19.62H15.1501L16.1244 22.4478C16.2135 22.7305 16.4948 22.9663 16.8371 22.94H19.6C19.727 22.94 19.9979 22.9089 20.1574 22.6501C20.2949 22.4268 20.2425 22.1923 20.2154 22.0939L20.2106 22.0766L20.2046 22.0596L15.3456 8.34785C15.3079 8.2133 15.2241 8.08412 15.0866 7.99518C14.9486 7.90586 14.8018 7.88663 14.6933 7.88663H11.24H11.1905L11.1419 7.89634C10.8737 7.94999 10.5994 8.21112 10.6332 8.56498C10.6315 8.80687 10.6095 9.04694 10.5679 9.27536C10.5316 9.3869 10.4997 9.49621 10.4725 9.58964C10.4624 9.62425 10.4529 9.65667 10.4441 9.68623L6.15434 22.0373ZM24.2109 10.5508L24.211 10.5508L24.2161 10.5455C24.6275 10.1151 24.8334 9.54973 24.8202 8.97347C24.8334 8.40834 24.6265 7.86108 24.2486 7.44877L24.2487 7.44867L24.2405 7.4402C23.8363 7.01951 23.3003 6.81996 22.6667 6.81996C22.1058 6.81996 21.5536 7.0243 21.1329 7.4242L21.1306 7.42636C20.7122 7.82904 20.4855 8.38637 20.4985 8.97241C20.4835 9.54985 20.6929 10.1109 21.083 10.5374L21.0945 10.5499L21.1068 10.5617C21.5135 10.9498 22.059 11.1781 22.6327 11.167C22.9204 11.181 23.2081 11.1349 23.4772 11.0315C23.7532 10.9254 24.0034 10.7615 24.2109 10.5508ZM5.66667 0.899963H26.3333C29.1905 0.899963 31.5 3.20944 31.5 6.06663V25.9333C31.5 28.7905 29.1905 31.1 26.3333 31.1H5.66667C2.80948 31.1 0.5 28.7905 0.5 25.9333V6.06663C0.5 3.20944 2.80948 0.899963 5.66667 0.899963ZM23.9613 22.9533C24.1145 22.9533 24.3284 22.9069 24.4828 22.714C24.6167 22.5466 24.6333 22.354 24.6333 22.24V11.9733C24.6333 11.8526 24.6087 11.6642 24.4669 11.5038C24.3144 11.3313 24.113 11.2866 23.9613 11.2866H21.3213C21.1991 11.2866 20.9918 11.3126 20.8275 11.4845C20.6686 11.6509 20.6467 11.8539 20.6467 11.9733V22.24C20.6467 22.384 20.683 22.5737 20.8259 22.7316C20.9762 22.8977 21.1756 22.9533 21.3467 22.9533H23.9613Z" stroke="black"/>
</g>
<defs>
<clipPath id="clip0_36_388">
<rect width="32" height="32" fill="white"/>
</clipPath>
</defs>
</svg>
