<svg width="22" height="22" viewBox="0 0 22 22" fill="none" xmlns="http://www.w3.org/2000/svg">
<path d="M6.44984 0.166504H15.5498C19.0165 0.166504 21.8332 2.98317 21.8332 6.44984V15.5498C21.8332 17.2163 21.1712 18.8145 19.9928 19.9928C18.8145 21.1712 17.2163 21.8332 15.5498 21.8332H6.44984C2.98317 21.8332 0.166504 19.0165 0.166504 15.5498V6.44984C0.166504 4.78339 0.828496 3.1852 2.00685 2.00685C3.1852 0.828496 4.78339 0.166504 6.44984 0.166504ZM6.23317 2.33317C5.19883 2.33317 4.20685 2.74406 3.47545 3.47545C2.74406 4.20685 2.33317 5.19883 2.33317 6.23317V15.7665C2.33317 17.9223 4.07734 19.6665 6.23317 19.6665H15.7665C16.8008 19.6665 17.7928 19.2556 18.5242 18.5242C19.2556 17.7928 19.6665 16.8008 19.6665 15.7665V6.23317C19.6665 4.07734 17.9223 2.33317 15.7665 2.33317H6.23317ZM16.6873 3.95817C17.0465 3.95817 17.3909 4.10084 17.6449 4.3548C17.8988 4.60875 18.0415 4.95319 18.0415 5.31234C18.0415 5.67148 17.8988 6.01592 17.6449 6.26988C17.3909 6.52383 17.0465 6.6665 16.6873 6.6665C16.3282 6.6665 15.9838 6.52383 15.7298 6.26988C15.4758 6.01592 15.3332 5.67148 15.3332 5.31234C15.3332 4.95319 15.4758 4.60875 15.7298 4.3548C15.9838 4.10084 16.3282 3.95817 16.6873 3.95817ZM10.9998 5.58317C12.4364 5.58317 13.8142 6.15385 14.83 7.16968C15.8458 8.1855 16.4165 9.56325 16.4165 10.9998C16.4165 12.4364 15.8458 13.8142 14.83 14.83C13.8142 15.8458 12.4364 16.4165 10.9998 16.4165C9.56325 16.4165 8.1855 15.8458 7.16968 14.83C6.15385 13.8142 5.58317 12.4364 5.58317 10.9998C5.58317 9.56325 6.15385 8.1855 7.16968 7.16968C8.1855 6.15385 9.56325 5.58317 10.9998 5.58317ZM10.9998 7.74984C10.1379 7.74984 9.31123 8.09225 8.70174 8.70174C8.09225 9.31123 7.74984 10.1379 7.74984 10.9998C7.74984 11.8618 8.09225 12.6884 8.70174 13.2979C9.31123 13.9074 10.1379 14.2498 10.9998 14.2498C11.8618 14.2498 12.6884 13.9074 13.2979 13.2979C13.9074 12.6884 14.2498 11.8618 14.2498 10.9998C14.2498 10.1379 13.9074 9.31123 13.2979 8.70174C12.6884 8.09225 11.8618 7.74984 10.9998 7.74984Z" fill="black"/>
</svg>
