<svg width="109" height="40" viewBox="0 0 109 40" fill="none" xmlns="http://www.w3.org/2000/svg">
<path d="M66.1955 25.53L69.6399 14.8611H78.3982L76.5679 20.45C75.7141 23.1022 72.0973 28.1878 68.1604 28.1878C66.238 28.1767 65.7952 26.8311 66.1955 25.53ZM48.0048 4.45556C47.9994 5.3421 48.2736 6.21022 48.7927 6.95007C49.3119 7.68992 50.0526 8.26825 50.9211 8.61188C51.7896 8.95551 52.747 9.049 53.672 8.88052C54.597 8.71204 55.4481 8.28915 56.1177 7.66538C56.7872 7.04161 57.245 6.24498 57.4333 5.37629C57.6215 4.5076 57.5316 3.6059 57.1751 2.78527C56.8185 1.96465 56.2113 1.26198 55.4302 0.766189C54.6491 0.270394 53.7293 0.00375142 52.7871 0C51.527 0.000231969 50.3179 0.468326 49.4224 1.30259C48.527 2.13685 48.0175 3.26989 48.0048 4.45556ZM41.9672 24.3867C40.4498 29.0567 41.6601 33.0956 46.2878 33.0956C49.7748 33.0956 53.7542 31.4133 57.6262 27.4611C57.8033 30.7389 59.7859 33.0944 64.24 33.0944C67.237 33.0944 70.9471 31.79 74.7907 27.4611C74.8769 30.8656 76.9516 33.0944 81.4057 33.0944C84.7593 33.0944 88.4671 31.5722 92.0852 27.4611C92.1336 30.6978 93.873 33.0944 98.1653 33.0944C102.858 33.0944 105.989 29.1833 108.759 24.5144L106.972 23.5489C105.763 25.7333 103.662 28.1722 101.74 28.1722C100.266 28.1722 100.266 26.7444 100.659 25.5256L108.479 1.80889H100.077L93.8186 20.9478C92.8787 23.7622 88.8568 28.1778 85.1466 28.1778C83.2254 28.1778 82.9113 26.6533 83.2691 25.53L86.7561 14.8611H92.6579L93.5978 12.0867H87.6901L90.7308 2.87556L81.8863 4.20667L79.2944 12.0722H70.574L73.5709 2.86111L64.7206 4.20667L62.1299 12.0722H59.3112L58.3772 14.8456H61.2324L59.225 21.0289C58.4634 23.4267 53.9491 28.1778 51.2225 28.1778C49.6024 28.1778 49.5694 26.8311 49.9697 25.6111L54.4403 12.0711H45.9903L41.9672 24.3867ZM0.758514 13.2911C0.758514 18.0011 3.79915 21.3644 4.64699 22.2478L11.2608 17.6256C10.9042 17.2433 9.20972 14.5767 9.20972 12.5744C9.20972 9.71445 12.0225 6.26444 18.928 5.09111L10.0564 32.5978H18.7284L23.4364 18.2089C24.8448 18.1274 26.2474 17.9731 27.6378 17.7467C27.7724 27.1256 28.6686 35.5289 31.4164 40L41.1359 35.6256C37.7669 31.84 33.523 23.1733 33.1558 16.1511C41.3897 12.8689 45.6336 6.35111 45.6336 0.335556L36.1575 1.80889C35.3155 8.45333 29.5861 13.0822 24.8085 14.0478L29.376 0.0866667L16.7635 2.03222C7.15153 3.49 0.758514 6.98111 0.758514 13.2911Z" fill="#3D3D3D"/>
</svg>
