<svg width="18" height="22" viewBox="0 0 18 22" fill="none" xmlns="http://www.w3.org/2000/svg">
<path d="M8.99984 20.1668C8.99984 20.1668 1.6665 14.6668 1.6665 9.16683C1.6665 4.5835 5.33317 1.8335 8.99984 1.8335C12.6665 1.8335 16.3332 4.5835 16.3332 9.16683C16.3332 14.6668 8.99984 20.1668 8.99984 20.1668ZM8.99984 11.9168C9.72918 11.9168 10.4287 11.6271 10.9444 11.1114C11.4601 10.5956 11.7498 9.89617 11.7498 9.16683C11.7498 8.43748 11.4601 7.73801 10.9444 7.22229C10.4287 6.70656 9.72918 6.41683 8.99984 6.41683C8.27049 6.41683 7.57102 6.70656 7.05529 7.22229C6.53957 7.73801 6.24984 8.43748 6.24984 9.16683C6.24984 9.89617 6.53957 10.5956 7.05529 11.1114C7.57102 11.6271 8.27049 11.9168 8.99984 11.9168Z" stroke="#333333" stroke-width="2"/>
</svg>
