<svg width="43" height="42" viewBox="0 0 43 42" fill="none" xmlns="http://www.w3.org/2000/svg">
<g clip-path="url(#clip0_336_5016)">
<path d="M17.996 14.735C17.3485 14.4725 16.6485 14.3675 15.931 14.385C15.476 14.385 15.0735 14.385 14.741 14.4025C14.391 14.385 14.146 14.4025 14.0235 14.42V20.3C14.2685 20.3175 14.496 20.335 14.706 20.335H15.6335C16.316 20.335 16.9985 20.23 17.646 20.02C18.206 19.8625 18.696 19.53 19.081 19.0925C19.4485 18.655 19.6235 18.06 19.6235 17.29C19.641 16.7475 19.501 16.205 19.221 15.7325C18.9292 15.2781 18.5001 14.9286 17.996 14.735ZM35.321 0.524963H8.19601C4.08351 0.524963 0.758514 3.84996 0.758514 7.96246V34.0357C0.758514 38.1482 4.08351 41.4732 8.19601 41.4732H35.321C39.4335 41.4732 42.7585 38.1482 42.7585 34.0357V7.96246C42.7585 3.84996 39.4335 0.524963 35.321 0.524963ZM22.3868 20.9125C21.6885 21.8925 20.7085 22.6275 19.571 23.0475C18.381 23.485 17.0685 23.6425 15.6335 23.6425C15.2135 23.6425 14.9335 23.6425 14.7585 23.625C14.5835 23.6075 14.3385 23.6075 14.006 23.6075V29.2232C14.0235 29.3457 13.936 29.4525 13.8135 29.47H10.4185C10.2785 29.47 10.2085 29.3982 10.2085 29.2407V11.235C10.2085 11.1125 10.261 11.0425 10.3835 11.0425C10.681 11.0425 10.961 11.0425 11.3635 11.025C11.7835 11.0075 12.221 11.0075 12.6935 10.99C13.166 10.9725 13.6735 10.9725 14.216 10.955C14.7585 10.9375 15.2835 10.9375 15.8085 10.9375C17.2435 10.9375 18.4335 11.1125 19.4135 11.48C20.2885 11.7775 21.0935 12.2675 21.7585 12.915C22.3185 13.475 22.756 14.1575 23.036 14.91C23.2968 15.645 23.4368 16.3975 23.4368 17.185C23.4391 18.69 23.0891 19.9325 22.3868 20.9125ZM34.796 27.72C34.306 28.42 33.6218 28.9607 32.836 29.2792C31.9785 29.645 30.9285 29.8357 29.6668 29.8357C28.8635 29.8357 28.0743 29.7675 27.2885 29.61C26.676 29.5032 26.0635 29.3125 25.5035 29.05C25.381 28.9817 25.2918 28.8592 25.3093 28.7192V25.6742C25.3093 25.6235 25.3285 25.5517 25.381 25.5167C25.4318 25.4817 25.486 25.4992 25.5385 25.5342C26.221 25.9367 26.9385 26.2185 27.7085 26.3917C28.3718 26.5667 29.0718 26.6542 29.7735 26.6542C30.4385 26.6542 30.911 26.565 31.226 26.4075C31.506 26.285 31.6985 25.9875 31.6985 25.6725C31.6985 25.4257 31.5585 25.2 31.2785 24.9725C30.9985 24.7467 30.4228 24.4842 29.5653 24.1482C28.6728 23.8332 27.852 23.4132 27.0803 22.89C26.5317 22.4988 26.0768 21.9908 25.7485 21.4025C25.4705 20.8487 25.3329 20.2351 25.3478 19.6157C25.3478 18.8632 25.5578 18.1457 25.9445 17.4982C26.382 16.7982 27.0278 16.2382 27.7803 15.8882C28.601 15.47 29.6335 15.2775 30.876 15.2775C31.5935 15.2775 32.3285 15.33 33.046 15.435C33.571 15.505 34.0785 15.645 34.551 15.8375C34.6193 15.855 34.691 15.925 34.726 15.995C34.7435 16.065 34.761 16.135 34.761 16.205V19.0575C34.761 19.1275 34.726 19.1975 34.6735 19.2325C34.516 19.2675 34.4285 19.2675 34.3585 19.2325C33.8335 18.9525 33.2735 18.76 32.6785 18.6375C32.031 18.4975 31.3835 18.41 30.7185 18.41C30.3685 18.3925 30.001 18.445 29.6668 18.5325C29.441 18.585 29.2468 18.7075 29.1243 18.8825C29.0368 19.0225 28.9843 19.1975 28.9843 19.355C28.9843 19.5125 29.0543 19.67 29.161 19.81C29.3185 20.0025 29.5268 20.16 29.756 20.2825C30.1568 20.4925 30.5785 20.685 30.9968 20.86C31.9435 21.175 32.8535 21.6125 33.6935 22.1375C34.271 22.5032 34.7435 22.995 35.0743 23.59C35.3543 24.1465 35.4943 24.7625 35.4768 25.3907C35.496 26.215 35.251 27.0357 34.796 27.72Z" fill="#3D3D3D"/>
</g>
<defs>
<clipPath id="clip0_336_5016">
<rect width="42" height="42" fill="white" transform="translate(0.758514)"/>
</clipPath>
</defs>
</svg>
