<svg width="32" height="32" viewBox="0 0 32 32" fill="none" xmlns="http://www.w3.org/2000/svg">
<rect x="0.5" y="0.5" width="31" height="31" rx="5.5" stroke="black"/>
<path d="M17.5 5.5C18.4687 5.5 19.4003 5.625 20.295 5.875C21.1897 6.125 22.0257 6.47833 22.803 6.935C23.5803 7.39233 24.287 7.93933 24.923 8.576C25.5603 9.21267 26.1073 9.91967 26.564 10.697C27.0213 11.4743 27.375 12.3103 27.625 13.205C27.875 14.0997 28 15.0313 28 16C28 16.9687 27.875 17.9003 27.625 18.795C27.375 19.6897 27.0217 20.5257 26.565 21.303C26.1077 22.0803 25.5607 22.787 24.924 23.423C24.2873 24.0603 23.5803 24.6073 22.803 25.064C22.0257 25.5213 21.1897 25.875 20.295 26.125C19.4003 26.375 18.4687 26.5 17.5 26.5C16.64 26.5 15.8 26.3983 14.98 26.195C14.16 25.9923 13.381 25.6977 12.643 25.311C11.9043 24.9243 11.2167 24.4517 10.58 23.893C9.94333 23.3343 9.379 22.7033 8.887 22H4.997C4.723 22 4.48833 21.9023 4.293 21.707C4.09767 21.5117 4 21.2773 4 21.004V10.996C4 10.7227 4.09767 10.4883 4.293 10.293C4.48833 10.0977 4.72267 10 4.996 10H8.886C9.37867 9.29667 9.94333 8.66567 10.58 8.107C11.2167 7.549 11.9043 7.07633 12.643 6.689C13.381 6.30233 14.16 6.00767 14.98 5.805C15.8 5.60167 16.64 5.5 17.5 5.5ZM18.25 7.035V15.25H26.465C26.3717 14.1567 26.0963 13.1313 25.639 12.174C25.1817 11.2167 24.5877 10.373 23.857 9.643C23.127 8.91233 22.2813 8.31833 21.32 7.861C20.3593 7.40433 19.336 7.129 18.25 7.035ZM12.988 14.605C12.988 14.1517 12.912 13.763 12.76 13.439C12.6073 13.115 12.3983 12.8517 12.133 12.649C11.867 12.4457 11.5543 12.297 11.195 12.203C10.8357 12.1097 10.445 12.063 10.023 12.063H6.848V19.926H8.688V17.184H9.93C10.3127 17.184 10.6857 17.1273 11.049 17.014C11.4123 16.9007 11.7383 16.7363 12.027 16.521C12.3163 16.3063 12.549 16.039 12.725 15.719C12.9003 15.399 12.988 15.0277 12.988 14.605ZM17.5 25C18.2813 25 19.0353 24.9043 19.762 24.713C20.4887 24.5217 21.174 24.2483 21.818 23.893C22.4627 23.537 23.0547 23.111 23.594 22.615C24.1327 22.119 24.6053 21.5643 25.012 20.951C25.4187 20.3377 25.7467 19.6757 25.996 18.965C26.246 18.2537 26.4023 17.5113 26.465 16.738H16.762V7.035C15.6053 7.12833 14.5153 7.431 13.492 7.943C12.4687 8.455 11.5703 9.14067 10.797 10H15.004C15.2773 10 15.5117 10.0977 15.707 10.293C15.9023 10.4883 16 10.7227 16 10.996V21.004C16 21.2773 15.9023 21.5117 15.707 21.707C15.5117 21.9023 15.2773 22 15.004 22H10.797C11.2263 22.4767 11.697 22.9003 12.209 23.271C12.721 23.6423 13.262 23.957 13.832 24.215C14.402 24.473 14.9957 24.6683 15.613 24.801C16.231 24.9337 16.86 25 17.5 25ZM9.812 13.598C10.1953 13.598 10.5003 13.674 10.727 13.826C10.9537 13.9787 11.067 14.258 11.067 14.664C11.067 14.844 11.0257 14.9907 10.943 15.104C10.861 15.2173 10.7577 15.309 10.633 15.379C10.5077 15.449 10.367 15.4977 10.211 15.525C10.055 15.5523 9.90667 15.566 9.766 15.566H8.687V13.598H9.812Z" fill="#212121"/>
</svg>
