<svg width="112" height="150" viewBox="0 0 112 150" fill="none" xmlns="http://www.w3.org/2000/svg">
<path fill-rule="evenodd" clip-rule="evenodd" d="M127.284 1.21887C139.482 1.79631 149.99 3.96764 158.086 7.71305C166.075 11.4071 171.699 16.6317 174.207 23.3869C178.237 34.2435 173.625 47.3267 162.658 60.6631C146.003 80.909 114.695 101.661 76.0467 116.01C55.4449 123.663 35.2346 128.575 16.9386 130.818C16.6024 130.857 16.3651 131.162 16.4047 131.498C16.4442 131.834 16.7527 132.071 17.0849 132.032C35.468 129.777 55.7731 124.846 76.4738 117.157C115.36 102.717 146.846 81.8107 163.603 61.4383C174.911 47.6906 179.511 34.1565 175.354 22.9637C172.739 15.9277 166.918 10.4499 158.6 6.60168C150.386 2.80089 139.723 0.58606 127.344 0.000717163C127.007 -0.0151062 126.719 0.241974 126.703 0.582108C126.687 0.918289 126.948 1.20305 127.284 1.21887Z" fill="#161616"/>
<mask id="mask0_418_10939" style="mask-type:luminance" maskUnits="userSpaceOnUse" x="0" y="112" width="34" height="38">
<path d="M33.8535 145.126L4.813 149.461L0.000290228 117.217L29.0408 112.882L33.8535 145.126Z" fill="white"/>
</mask>
<g mask="url(#mask0_418_10939)">
<path fill-rule="evenodd" clip-rule="evenodd" d="M19.412 147.258C19.412 147.258 18.2056 142.551 17.1804 138.55C16.3508 135.322 13.3887 133.105 10.0591 133.222C6.77315 133.337 3.28478 133.462 3.28478 133.462C3.28478 133.462 6.65755 132.562 9.83374 131.713C13.0524 130.852 15.238 127.867 15.0891 124.538C14.901 120.411 14.6804 115.558 14.6804 115.558C14.6804 115.558 15.8867 120.264 16.9119 124.266C17.7415 127.493 20.7037 129.71 24.0332 129.593C27.3192 129.479 30.8076 129.354 30.8076 129.354C30.8076 129.354 27.4348 130.253 24.2586 131.103C21.04 131.963 18.8543 134.949 19.0033 138.278C19.1914 142.404 19.412 147.258 19.412 147.258Z" fill="#161616"/>
</g>
</svg>
