<svg width="117" height="150" viewBox="0 0 117 150" fill="none" xmlns="http://www.w3.org/2000/svg">
<path fill-rule="evenodd" clip-rule="evenodd" d="M-10.4219 148.242C-22.6193 147.665 -33.1278 145.493 -41.2238 141.748C-49.2129 138.054 -54.837 132.829 -57.3445 126.074C-61.3747 115.218 -56.7631 102.134 -45.7958 88.7979C-29.1411 68.552 2.16698 47.7999 40.8156 33.451C61.4174 25.798 81.6277 20.8859 99.9237 18.6434C100.26 18.6038 100.497 18.2993 100.458 17.9631C100.418 17.6269 100.11 17.3896 99.7774 17.4292C81.3943 19.6835 61.0892 24.6155 40.3885 32.3041C1.50253 46.7439 -29.9835 67.6503 -46.741 88.0227C-58.0485 101.77 -62.6482 115.305 -58.4915 126.497C-55.8772 133.533 -50.0554 139.011 -41.7379 142.859C-33.5233 146.66 -22.8605 148.875 -10.4812 149.46C-10.1451 149.476 -9.85634 149.219 -9.84052 148.879C-9.8247 148.543 -10.0857 148.258 -10.4219 148.242Z" fill="#161616"/>
<mask id="mask0_418_10938" style="mask-type:luminance" maskUnits="userSpaceOnUse" x="83" y="0" width="34" height="37">
<path d="M83.0088 4.33453L112.049 2.93997e-06L116.862 32.2442L87.8215 36.5787L83.0088 4.33453Z" fill="white"/>
</mask>
<g mask="url(#mask0_418_10938)">
<path fill-rule="evenodd" clip-rule="evenodd" d="M97.4504 2.20299C97.4504 2.20299 98.6567 6.90953 99.6819 10.9113C100.511 14.1385 103.474 16.3557 106.803 16.2386C110.089 16.124 113.578 15.9992 113.578 15.9992C113.578 15.9992 110.205 16.8985 107.029 17.7485C103.81 18.6088 101.624 21.5943 101.773 24.9231C101.961 29.0498 102.182 33.9035 102.182 33.9035C102.182 33.9035 100.976 29.1969 99.9504 25.1951C99.1208 21.9679 96.1586 19.7508 92.8291 19.8679C89.5431 19.9824 86.0547 20.1072 86.0547 20.1072C86.0547 20.1072 89.4275 19.2079 92.6037 18.358C95.8223 17.4977 98.008 14.5122 97.859 11.1834C97.6709 7.05666 97.4504 2.20299 97.4504 2.20299Z" fill="#161616"/>
</g>
</svg>
