<svg width="64" height="64" viewBox="0 0 64 64" fill="none" xmlns="http://www.w3.org/2000/svg">
<mask id="mask0_418_12282" style="mask-type:luminance" maskUnits="userSpaceOnUse" x="0" y="0" width="64" height="64">
<path d="M0.669922 0.740234H63.2779V63.3482H0.669922V0.740234Z" fill="white"/>
</mask>
<g mask="url(#mask0_418_12282)">
<path d="M63.2844 32.049L38.9823 39.0526L31.9786 63.3547L24.975 39.0526L0.672852 32.049L24.975 25.0453L31.9786 0.743164L38.9823 25.0453L63.2844 32.049ZM9.63566 18.6679L11.6405 11.7109L18.5976 9.70508L11.6405 7.70021L9.63566 0.743164L7.62989 7.70021L0.672852 9.70508L7.62989 11.7109L9.63566 18.6679ZM54.3225 45.43L52.3167 52.3871L45.3597 54.3928L52.3167 56.3977L54.3225 63.3547L56.3274 56.3977L63.2844 54.3928L56.3274 52.3871L54.3225 45.43Z" fill="#161616"/>
</g>
</svg>
