<svg width="32" height="32" viewBox="0 0 32 32" fill="none" xmlns="http://www.w3.org/2000/svg">
<g id="simple-icons:adobexd" clip-path="url(#clip0_36_386)">
<path id="Vector" d="M23.7933 11.0645C23.7127 11.06 23.6477 11.06 23.6021 11.06H23.6C22.2172 11.06 21.0094 11.3254 19.9854 11.8954C19.0319 12.4159 18.2383 13.1865 17.69 14.1243C17.1419 15.0617 16.8595 16.1308 16.8733 17.2166C16.8738 18.4927 17.1265 19.6015 17.6792 20.5126L17.6798 20.5137C18.2082 21.3796 18.975 22.09 19.9109 22.5208C20.8741 22.9663 21.9336 23.1804 22.99 23.1666C22.9912 23.1666 22.9923 23.1666 22.9934 23.1666L23.7933 11.0645ZM23.7933 11.0645V7.38663C23.7933 7.28025 23.8145 7.10392 23.9472 6.95083C24.0919 6.78387 24.2842 6.73996 24.4267 6.73996H27.0989C27.4758 6.70062 27.7004 7.00669 27.7517 7.21204L27.7667 7.27175V7.3333V20.0533C27.7667 20.2592 27.7771 20.4874 27.7893 20.7526C27.7902 20.7743 27.7913 20.7962 27.7923 20.8184L23.7933 11.0645ZM8.34361 7.97942L8.29452 7.95487L8.24127 7.94156C8.17358 7.92464 8.06061 7.89996 7.93333 7.89996H4.90667C4.81795 7.89996 4.55696 7.91518 4.38302 8.14015C4.24179 8.31126 4.25023 8.50958 4.27277 8.61473C4.29426 8.71504 4.33813 8.79765 4.38013 8.85894L8.25687 15.4225L4.27028 21.96C4.22195 22.0354 4.18882 22.1196 4.17279 22.2077C4.15924 22.2823 4.15813 22.3584 4.1694 22.4331C4.17553 22.4968 4.19518 22.5912 4.25773 22.685C4.37004 22.8535 4.53728 22.9052 4.64359 22.9158C4.68942 22.9204 4.72695 22.9182 4.74639 22.9167C4.75932 22.9156 4.77142 22.9143 4.77919 22.9133H7.69333H7.69507C7.76591 22.9133 7.91475 22.9133 8.06216 22.8562C8.23791 22.7882 8.37025 22.6592 8.44831 22.4894C8.65031 22.1289 8.85353 21.7548 9.05492 21.3842C9.15673 21.1968 9.25807 21.0103 9.35855 20.8268L9.35862 20.8268L9.36292 20.8186C9.65507 20.2609 9.9607 19.6895 10.2676 19.1158L10.2699 19.1115C10.4303 18.8115 10.5922 18.5089 10.7509 18.2047C10.9241 18.5171 11.097 18.8269 11.2696 19.1361L11.2701 19.137C11.5887 19.7079 11.8916 20.2611 12.1673 20.7992C12.3085 21.0817 12.4529 21.3603 12.5953 21.6353L12.596 21.6366C12.7396 21.9138 12.8813 22.1873 13.0195 22.4636L13.0359 22.4965L13.0571 22.5267C13.3099 22.8879 13.7158 22.8871 13.9029 22.8867C13.9088 22.8866 13.9145 22.8866 13.92 22.8866H16.9733H17.0147L17.0191 22.8859C17.0246 22.8863 17.031 22.8867 17.0384 22.8872C17.0391 22.8872 17.0399 22.8873 17.0409 22.8874C17.0671 22.8893 17.1905 22.8982 17.3217 22.8343C17.4996 22.7476 17.5772 22.5926 17.6051 22.4812L17.6051 22.4812C17.6591 22.2651 17.594 22.0832 17.5405 21.9764L17.5312 21.9576L17.5203 21.9397L13.4118 15.1992L17.2346 8.89157C17.2694 8.84648 17.2968 8.7992 17.3169 8.75519C17.3314 8.72314 17.3544 8.6661 17.3648 8.5938C17.3686 8.56688 17.3834 8.45828 17.3378 8.33527C17.2434 8.04493 16.9602 7.89075 16.6908 7.9133H13.9436C13.7876 7.89507 13.6292 7.92601 13.491 8.00264L13.473 8.01257L13.456 8.02394C13.3026 8.12618 13.2271 8.27305 13.19 8.37939C13.0736 8.59669 12.9601 8.81252 12.8468 9.02804C12.6743 9.35581 12.5023 9.68283 12.3215 10.0131L12.3204 10.015C12.0145 10.5737 11.7059 11.1371 11.4104 11.7013C11.2624 11.9838 11.114 12.2706 10.9669 12.5614C10.8172 12.2774 10.6624 11.9947 10.5008 11.7119L10.5009 11.7119L10.4963 11.7042C10.2276 11.2528 9.97695 10.8022 9.71813 10.3369C9.66106 10.2343 9.60359 10.131 9.54544 10.0268C9.24189 9.45921 8.95604 8.89983 8.71068 8.34455L8.6876 8.29231L8.65333 8.24663C8.58945 8.16145 8.49372 8.05447 8.34361 7.97942ZM4.65863 21.9206C4.64683 21.9221 4.64922 21.9213 4.66046 21.9203C4.65968 21.9204 4.65906 21.9205 4.65863 21.9206ZM23.4933 14.54L23.4944 14.54C23.5943 14.5397 23.6941 14.5447 23.7933 14.5547V19.5667L23.775 19.5681C23.6024 19.5814 23.4324 19.5933 23.2533 19.5933C22.9276 19.5933 22.6082 19.5468 22.3048 19.4456L22.3048 19.4455L22.2937 19.4421C22.0274 19.3601 21.7888 19.2165 21.5888 19.0283C21.3789 18.817 21.2185 18.5616 21.1094 18.2676C20.9701 17.8841 20.9017 17.4806 20.9131 17.0809L20.9133 17.0738V17.0666C20.9133 16.4385 21.0468 15.9745 21.2654 15.6566C21.5104 15.3002 21.832 15.023 22.2103 14.8338L22.2103 14.8339L22.2153 14.8313C22.601 14.6329 23.0405 14.54 23.4933 14.54ZM0.5 6.06663C0.5 3.20944 2.80948 0.899963 5.66667 0.899963H26.3333C29.1905 0.899963 31.5 3.20944 31.5 6.06663V25.9333C31.5 28.7905 29.1905 31.1 26.3333 31.1H5.66667C2.80948 31.1 0.5 28.7905 0.5 25.9333V6.06663Z" stroke="black"/>
</g>
<defs>
<clipPath id="clip0_36_386">
<rect width="32" height="32" fill="white"/>
</clipPath>
</defs>
</svg>
