<svg width="43" height="42" viewBox="0 0 43 42" fill="none" xmlns="http://www.w3.org/2000/svg">
<g clip-path="url(#clip0_336_5046)">
<path d="M8.19601 0.525024C4.08351 0.525024 0.758514 3.85002 0.758514 7.96252V34.0375C0.758514 38.15 4.08351 41.475 8.19601 41.475H35.321C39.4335 41.475 42.7585 38.15 42.7585 34.0375V7.96252C42.7585 3.85002 39.4335 0.525024 35.321 0.525024H8.19601ZM32.8185 9.50252H36.371C36.4585 9.48502 36.5285 9.55503 36.546 9.62502V26.32C36.546 26.635 36.5635 26.985 36.581 27.37C36.616 27.7375 36.6335 28.0875 36.651 28.385C36.651 28.5075 36.5985 28.6125 36.476 28.665C35.566 29.05 34.6035 29.33 33.6235 29.505C32.731 29.6625 31.8385 29.75 30.9285 29.75C29.6335 29.7675 28.3385 29.505 27.166 28.9625C26.0635 28.455 25.1535 27.615 24.5235 26.5825C23.876 25.515 23.561 24.185 23.561 22.5925C23.5442 21.2854 23.884 19.9984 24.5439 18.8699C25.2037 17.7414 26.1587 16.814 27.306 16.1875C28.531 15.505 30.001 15.1725 31.7335 15.1725C31.821 15.1725 31.9435 15.1725 32.101 15.19C32.2585 15.2075 32.4335 15.2075 32.6435 15.225V9.69502C32.6435 9.57253 32.696 9.50252 32.8185 9.50252ZM7.19851 11.025H11.171C11.2585 11.025 11.346 11.0425 11.416 11.06C11.486 11.095 11.5385 11.1475 11.591 11.2175C11.9235 11.97 12.3085 12.7225 12.711 13.475C13.131 14.2275 13.5335 14.9625 13.971 15.6975C14.391 16.4325 14.776 17.1675 15.1435 17.92H15.1785C15.546 17.15 15.931 16.3975 16.316 15.6625C16.701 14.9275 17.1035 14.1925 17.506 13.4575C17.9085 12.7225 18.2935 11.97 18.6785 11.2525C18.696 11.1825 18.731 11.1125 18.7835 11.0775C18.8532 11.0405 18.9334 11.0282 19.011 11.0425H22.7035C22.791 11.025 22.8785 11.0775 22.896 11.165C22.9135 11.1825 22.8785 11.2525 22.8435 11.2875L17.5935 19.95L23.1935 29.1375C23.2285 29.2075 23.246 29.2775 23.2285 29.3475C23.211 29.4175 23.141 29.365 23.036 29.3825H19.0285C18.7485 29.3825 18.556 29.365 18.4335 29.19C18.066 28.455 17.681 27.7375 17.3135 27.0025C16.946 26.285 16.5435 25.55 16.1235 24.7975C15.7035 24.045 15.2835 23.2925 14.8635 22.5225H14.8285C14.461 23.275 14.0585 24.0275 13.656 24.78C13.2535 25.5325 12.851 26.285 12.466 27.02C12.0635 27.755 11.661 28.5075 11.2585 29.225C11.1885 29.4 11.0485 29.4175 10.856 29.4175H7.00601C6.93601 29.4175 6.88351 29.4525 6.88351 29.365C6.87581 29.3323 6.87494 29.2983 6.88096 29.2651C6.88699 29.232 6.89977 29.2005 6.91851 29.1725L12.361 20.2475L7.05851 11.27C7.00601 11.2 6.98851 11.13 7.02351 11.095C7.05851 11.0425 7.12851 11.025 7.19851 11.025ZM31.5935 18.4275C30.911 18.4275 30.2285 18.5675 29.616 18.8825C29.021 19.18 28.5135 19.6175 28.1285 20.1775C27.7435 20.7375 27.551 21.49 27.551 22.4C27.5335 23.0125 27.6385 23.625 27.8485 24.2025C28.0235 24.675 28.286 25.095 28.636 25.445C28.9685 25.76 29.371 26.005 29.826 26.145C30.2985 26.3025 30.7885 26.3725 31.2785 26.3725C31.541 26.3725 31.786 26.355 32.0135 26.3375C32.241 26.355 32.4335 26.32 32.6435 26.25V18.55C32.2995 18.4685 31.9471 18.4274 31.5935 18.4275Z" fill="#3D3D3D"/>
</g>
<defs>
<clipPath id="clip0_336_5046">
<rect width="42" height="42" fill="white" transform="translate(0.758514)"/>
</clipPath>
</defs>
</svg>
